<?xml version="1.0" encoding="iso-8859-1"?>
<!-- Generator: Adobe Illustrator 19.2.0, SVG Export Plug-In . SVG Version: 6.00 Build 0)  -->
<svg version="1.1" xmlns="http://www.w3.org/2000/svg" xmlns:xlink="http://www.w3.org/1999/xlink" x="0px" y="0px"
	 viewBox="0 0 80.005 83.638" style="enable-background:new 0 0 80.005 83.638;" xml:space="preserve">
<g id="Julien_x5F_et_x5F_Mege">
	<path style="fill-rule:evenodd;clip-rule:evenodd;" d="M24.981,0.183c0.094,19.406,0.207,39.817,0.207,59.037
		c0,3.758-0.808,7.013-2.071,9.839c-2.444,5.469-6.419,9.28-11.808,11.963c-2.986,1.401-6.674,2.646-10.875,2.486
		c-0.28-0.793-0.155-1.68-0.155-2.486c0-26.843-0.505-53.667-0.155-80.787C6.591-0.26,13.738,0.39,20.424,0.08
		C21.702,0.02,23.732-0.108,24.981,0.183z"/>
	<path style="fill-rule:evenodd;clip-rule:evenodd;" d="M52.376,83.457c-1.944,0.325-3.991,0.114-6.059,0.104
		c-6.141-0.033-12.675,0.116-18.643-0.156c-0.194-26.686-0.207-54.008-0.207-80.942c0-0.781-0.148-1.646,0.207-2.382
		C36.37,0.156,42.26,3.97,46.472,8.625c2.215,2.447,3.808,5.366,4.868,8.7c0.542,1.702,0.922,3.608,1.036,5.748
		c0.114,2.137,0.052,4.454,0.052,6.732c0,8.88-0.161,18.043,0.052,26.929c0.162,6.767,0.052,13.63,0.052,20.197
		C52.531,79.154,52.609,81.356,52.376,83.457z"/>
	<path style="fill-rule:evenodd;clip-rule:evenodd;" d="M55.069,0.132c8.921,0.193,14.413,3.816,18.851,8.493
		c3.108,3.617,5.62,8.151,5.904,14.604c0.14,3.179,0.052,6.564,0.052,9.995c-0.001,15.455,0.103,32.041,0.104,47.851
		c0,0.798,0.121,1.629-0.155,2.383c-7.76,0.104-16.585,0.215-24.806,0c-0.333-1.665-0.103-3.374-0.103-5.075
		c0-23.835-0.155-48.08-0.155-72.347c0-1.678-0.097-3.387,0-5.023c0.012-0.208,0.037-0.65,0.155-0.776
		C54.951,0.186,55.008,0.157,55.069,0.132z"/>
</g>
<g id="Layer_1">
</g>
</svg>
