<?xml version="1.0" standalone="no"?>
<!DOCTYPE svg PUBLIC "-//W3C//DTD SVG 20010904//EN"
 "http://www.w3.org/TR/2001/REC-SVG-20010904/DTD/svg10.dtd">
<svg version="1.0" xmlns="http://www.w3.org/2000/svg"
 width="1408.000000pt" height="1408.000000pt" viewBox="0 0 1408.000000 1408.000000"
 preserveAspectRatio="xMidYMid meet">
<metadata>
Created by potrace 1.14, written by Peter Selinger 2001-2017
</metadata>
<g transform="translate(0.000000,1408.000000) scale(0.100000,-0.100000)"
fill="#000000" stroke="none">
<path d="M2297 9784 c-6 -6 -88 -13 -214 -18 -24 0 -43 -3 -43 -6 0 -3 -12 -5
-27 -6 -33 -1 -131 -13 -164 -20 -13 -2 -39 -7 -56 -9 -18 -3 -52 -10 -75 -16
-24 -5 -61 -14 -83 -19 -22 -5 -65 -17 -95 -25 -30 -9 -68 -20 -85 -25 -116
-33 -361 -140 -438 -193 -15 -10 -27 -15 -27 -10 0 4 -4 3 -8 -3 -4 -5 -25
-21 -47 -34 -22 -13 -46 -30 -53 -37 -7 -7 -17 -13 -22 -13 -5 0 -15 -6 -22
-12 -7 -7 -36 -31 -63 -53 -115 -91 -199 -177 -303 -310 -18 -23 -78 -112 -91
-135 -41 -72 -109 -210 -104 -210 3 0 1 -6 -5 -12 -13 -18 -81 -221 -86 -260
-2 -18 -7 -40 -10 -48 -6 -15 -12 -48 -23 -110 -4 -19 -7 -57 -7 -84 l-1 -50
620 0 620 0 11 55 c6 30 17 74 24 99 8 25 14 47 14 50 4 20 52 126 79 175 42
74 172 215 197 215 6 0 10 5 10 10 0 6 7 10 15 10 8 0 15 5 15 10 0 6 6 10 14
10 8 0 16 3 18 8 5 11 143 73 168 75 11 1 20 4 20 7 0 3 8 7 18 8 21 2 57 10
57 12 0 3 102 19 174 27 59 6 227 6 266 -1 17 -3 46 -7 65 -10 19 -3 49 -8 65
-11 17 -4 35 -8 40 -9 37 -8 158 -53 195 -74 106 -59 219 -157 251 -219 7 -15
16 -30 20 -33 3 -3 10 -18 16 -35 6 -16 14 -39 19 -50 16 -45 27 -117 27 -180
0 -59 -11 -153 -19 -166 -3 -5 -8 -21 -10 -36 -3 -15 -9 -32 -13 -38 -5 -5
-12 -21 -16 -34 -9 -28 -65 -111 -104 -154 -29 -32 -127 -104 -182 -135 -91
-51 -272 -109 -394 -127 -22 -3 -53 -8 -70 -11 -77 -12 -139 -15 -399 -19
-153 -3 -281 -7 -284 -10 -3 -3 -6 -236 -6 -519 -1 -450 1 -515 14 -518 8 -2
135 -3 283 -3 147 0 267 -2 267 -5 0 -3 24 -5 53 -5 28 0 70 -2 92 -6 22 -4
62 -10 88 -13 86 -12 261 -60 333 -92 21 -9 41 -18 44 -19 78 -27 270 -174
270 -206 0 -5 4 -9 9 -9 10 0 88 -155 94 -190 3 -14 8 -36 12 -50 7 -29 8
-200 1 -247 -8 -57 -28 -148 -34 -158 -4 -5 -7 -14 -8 -20 -2 -9 -34 -77 -59
-126 -5 -10 -13 -19 -17 -19 -5 0 -8 -6 -8 -12 0 -15 -134 -148 -148 -148 -5
0 -17 -9 -27 -20 -10 -11 -26 -20 -36 -20 -9 0 -19 -4 -21 -8 -10 -27 -265
-101 -359 -105 -27 -1 -49 -4 -49 -7 0 -3 -15 -4 -32 -3 -18 1 -33 2 -33 3 0
1 -8 3 -17 5 -10 2 -18 0 -18 -4 0 -8 -83 -6 -106 3 -10 4 -12 2 -8 -6 4 -6 3
-8 -3 -5 -6 4 -28 9 -49 13 -22 3 -50 8 -64 10 -14 3 -32 6 -40 6 -25 0 -121
29 -195 58 -235 93 -411 270 -507 509 -35 86 -68 207 -60 215 3 4 1 6 -4 6 -5
0 -10 19 -11 42 -2 22 -5 43 -8 46 -7 7 -1234 9 -1244 2 -11 -7 -11 -35 0
-100 8 -51 11 -67 24 -137 21 -106 97 -345 117 -370 6 -7 8 -13 4 -13 -19 0
191 -368 216 -378 4 -2 8 -8 8 -14 0 -5 6 -15 13 -22 6 -7 28 -33 47 -56 75
-92 228 -236 320 -300 19 -14 37 -27 40 -30 11 -11 70 -50 75 -50 4 0 25 -13
48 -28 47 -32 267 -144 267 -137 0 3 13 -1 30 -10 53 -27 279 -102 335 -111
40 -6 79 -15 87 -20 5 -3 21 -7 36 -9 15 -2 56 -9 92 -15 36 -6 81 -13 100
-15 19 -2 64 -7 100 -11 127 -16 616 -8 718 11 10 1 37 6 62 9 25 4 79 14 120
21 41 8 86 17 100 19 14 3 27 5 30 6 3 2 8 2 12 1 4 0 20 4 35 10 15 6 39 13
53 15 66 12 308 102 420 156 107 52 334 188 350 209 3 4 23 22 45 39 135 107
255 244 345 395 65 107 62 103 67 87 3 -7 11 -19 19 -26 8 -8 14 -17 14 -21 0
-8 32 -53 99 -140 93 -120 187 -215 310 -315 24 -19 49 -41 56 -47 8 -7 18
-13 24 -13 6 0 11 -4 11 -10 0 -5 5 -10 11 -10 6 0 28 -13 49 -30 21 -16 41
-30 46 -30 4 0 15 -6 23 -14 25 -21 176 -98 271 -138 119 -50 258 -96 370
-123 46 -10 232 -45 275 -51 91 -11 109 -13 245 -19 74 -4 138 -9 142 -11 4
-2 9 0 13 6 4 7 12 7 26 0 10 -6 19 -7 19 -3 0 4 35 8 78 9 151 1 319 22 498
60 39 8 79 17 90 19 10 2 19 4 19 5 0 1 7 3 15 5 53 10 195 54 245 76 17 7 32
13 35 13 33 7 284 126 288 137 2 5 9 9 16 9 17 0 180 108 266 177 99 79 223
204 291 293 19 25 36 47 39 50 15 15 50 71 50 80 0 5 3 10 8 10 4 0 12 10 18
23 14 27 86 161 89 165 1 1 30 -44 63 -100 131 -219 303 -419 488 -566 85 -66
253 -176 279 -182 6 -1 21 -10 35 -19 53 -36 280 -131 311 -131 10 0 21 -4 24
-10 3 -5 16 -10 29 -10 12 0 27 -5 34 -12 7 -7 12 -9 12 -6 0 4 15 2 33 -3 17
-6 43 -12 57 -15 14 -3 33 -7 42 -10 29 -9 154 -31 228 -40 19 -3 51 -7 70
-10 67 -9 476 -12 555 -4 153 15 250 29 325 45 14 3 34 8 45 10 92 21 196 51
270 79 39 15 75 28 80 30 65 16 297 145 415 230 168 120 326 278 458 458 23
31 42 60 42 63 0 4 6 13 13 20 25 29 44 60 96 160 9 16 18 32 21 35 12 12 30
51 30 65 0 8 4 15 8 15 8 0 32 57 31 74 0 5 3 12 8 15 8 5 57 117 58 131 0 3
3 10 6 15 36 58 152 512 173 675 3 25 8 56 11 70 3 14 7 45 10 70 2 25 7 72
10 105 16 136 26 350 26 530 -1 140 -15 450 -21 450 -1 0 -3 20 -5 45 -10 123
-17 184 -31 260 -2 14 -7 41 -10 60 -3 19 -7 42 -9 50 -2 8 -7 29 -10 45 -2
17 -7 41 -10 55 -3 14 -8 36 -11 50 -3 14 -9 39 -14 55 -5 17 -11 41 -14 55
-5 30 -86 281 -94 295 -4 6 -7 15 -8 22 -7 43 -197 419 -225 443 -3 3 -8 12
-11 21 -15 39 -173 234 -268 330 -175 176 -338 292 -557 396 -118 56 -322 128
-419 149 -7 1 -44 9 -83 18 -39 9 -74 16 -78 15 -5 -1 -10 0 -13 1 -14 5 -112
18 -205 27 -38 4 -162 7 -275 7 -265 1 -379 -9 -582 -49 -61 -11 -75 -15 -133
-31 -33 -9 -67 -18 -75 -19 -37 -8 -146 -48 -157 -57 -7 -6 -13 -8 -13 -5 0
12 -214 -90 -310 -148 -57 -34 -144 -92 -175 -116 -131 -103 -230 -198 -315
-300 -29 -34 -58 -69 -66 -77 -8 -7 -21 -27 -29 -43 -9 -16 -20 -29 -26 -29
-6 0 -8 -4 -5 -9 4 -5 2 -11 -2 -13 -7 -3 -59 -81 -106 -161 -47 -81 -120
-235 -116 -246 1 -2 -2 -7 -7 -10 -8 -5 -33 -70 -91 -231 -6 -18 -5 -14 -22
-70 -7 -25 -15 -49 -16 -55 -13 -41 -65 -257 -70 -285 -7 -46 -13 -80 -18
-105 -2 -11 -7 -42 -10 -68 -4 -27 -9 -58 -11 -69 -2 -11 -7 -47 -10 -81 -7
-70 -16 -141 -19 -144 -1 -1 -22 17 -48 40 -84 77 -108 97 -116 97 -4 0 -14 9
-22 20 -8 11 -18 20 -23 20 -10 0 -71 42 -75 53 -2 4 -9 7 -15 7 -6 0 -18 6
-26 14 -19 17 -208 114 -271 139 -25 10 -61 25 -80 33 -20 8 -42 16 -50 18 -8
2 -22 6 -30 9 -55 23 -237 63 -380 83 -123 18 -402 23 -510 11 -129 -15 -145
-18 -175 -26 -16 -4 -42 -7 -57 -7 -16 1 -28 -1 -28 -5 0 -3 -6 -6 -12 -7 -12
-1 -38 -6 -88 -16 -114 -23 -427 -144 -438 -168 -2 -5 -8 -8 -14 -8 -5 0 -23
-9 -38 -20 -30 -21 -42 -16 -36 16 2 10 7 48 11 84 4 36 9 76 11 90 2 14 6 49
10 79 3 30 7 63 9 73 2 11 7 46 10 79 4 33 8 68 10 77 1 9 6 46 10 82 3 36 8
72 10 80 2 8 7 44 10 80 4 36 9 74 11 85 3 11 7 45 10 75 2 30 6 64 9 75 2 11
4 25 4 32 1 10 294 12 1331 12 732 0 1334 2 1338 5 5 3 8 910 3 1007 -1 15
-146 17 -1848 17 -1017 1 -1856 -2 -1866 -4 -10 -3 -17 -11 -15 -17 1 -7 -2
-43 -7 -82 -5 -38 -9 -79 -10 -90 -1 -11 -3 -22 -4 -25 -1 -3 -4 -18 -5 -35
-2 -16 -7 -55 -10 -85 -4 -30 -9 -71 -11 -90 -6 -45 -23 -183 -30 -235 -3 -22
-8 -58 -10 -80 -3 -22 -7 -56 -10 -75 -2 -19 -7 -62 -11 -95 -4 -33 -8 -73
-11 -90 -2 -16 -5 -46 -8 -66 -2 -19 -16 -127 -30 -240 -14 -112 -28 -224 -31
-249 -8 -71 -15 -123 -19 -150 -3 -14 -7 -52 -10 -85 -4 -33 -8 -71 -10 -85
-2 -14 -6 -50 -9 -80 -3 -30 -10 -81 -15 -114 -6 -32 -10 -61 -9 -65 1 -6 -11
-107 -18 -143 -1 -9 -6 -48 -9 -85 -4 -37 -9 -76 -11 -87 -2 -10 -6 -44 -10
-75 -4 -31 -8 -67 -10 -81 -2 -14 -5 -45 -8 -70 -3 -25 -7 -60 -11 -78 -3 -17
-7 -53 -10 -80 -4 -46 -17 -150 -21 -164 -1 -5 -2 -24 -3 -43 0 -19 -4 -35 -8
-35 -5 0 -23 21 -42 46 -55 73 -183 195 -268 256 -87 62 -248 150 -257 141 -3
-4 -6 -1 -6 6 0 7 9 15 20 18 11 3 20 9 20 14 0 5 5 9 11 9 10 0 103 63 119
80 3 3 21 17 40 31 148 111 342 355 422 529 54 118 77 183 94 260 4 19 8 37 9
40 21 76 26 114 30 260 3 134 -2 197 -29 335 -5 26 -61 191 -66 195 -3 3 -12
21 -20 40 -19 48 -75 142 -105 178 -14 17 -25 33 -25 36 0 3 -8 14 -17 25
-180 190 -224 226 -438 358 -41 25 -150 78 -157 75 -5 -1 -8 3 -8 10 0 6 -3 9
-6 6 -3 -4 -35 8 -72 24 -37 17 -80 35 -97 39 -16 4 -68 20 -115 35 -86 26
-134 39 -180 47 -14 3 -43 9 -65 15 -22 5 -47 10 -55 11 -8 0 -35 4 -60 10
-42 9 -68 12 -200 26 -25 3 -91 7 -148 9 -57 2 -106 6 -109 9 -3 3 -11 3 -18
1 -22 -9 -155 -9 -158 -1 -1 5 -6 5 -10 1z m8293 -948 c36 -3 81 -11 100 -16
19 -6 44 -13 55 -15 43 -7 146 -55 215 -100 80 -51 198 -165 245 -235 16 -25
33 -47 37 -50 11 -8 129 -240 123 -240 -4 0 1 -12 9 -27 13 -25 51 -131 62
-173 2 -8 11 -44 20 -80 9 -36 18 -72 21 -80 3 -8 7 -26 9 -40 2 -14 6 -36 9
-50 4 -14 9 -38 11 -53 5 -41 14 -100 18 -122 4 -18 15 -121 22 -205 14 -153
22 -490 12 -496 -5 -3 -4 -13 0 -22 5 -9 7 -33 6 -52 -2 -19 -6 -87 -8 -150
-3 -63 -8 -140 -11 -170 -3 -30 -8 -75 -10 -100 -9 -87 -37 -263 -46 -286 -4
-13 -6 -24 -3 -24 2 0 0 -10 -7 -21 -8 -16 -8 -20 1 -14 9 6 9 3 1 -12 -5 -11
-13 -33 -15 -49 -7 -39 -39 -146 -64 -216 -11 -32 -18 -58 -15 -58 3 0 -2 -8
-11 -19 -9 -10 -16 -22 -14 -27 3 -12 -81 -182 -109 -220 -13 -17 -23 -35 -23
-40 -1 -18 -137 -169 -200 -221 -81 -67 -74 -62 -145 -99 -95 -49 -202 -81
-305 -90 -100 -9 -116 -9 -127 -1 -9 6 -13 5 -13 -2 0 -7 -4 -10 -8 -7 -4 3
-33 7 -63 10 -124 13 -275 68 -378 139 -65 45 -78 55 -140 121 -85 89 -101
106 -101 112 0 3 -14 25 -30 49 -41 60 -96 166 -129 250 -15 39 -32 79 -36 90
-4 11 -9 25 -11 30 -1 6 -12 42 -23 80 -33 109 -72 292 -86 400 -2 17 -6 46
-9 65 -37 260 -43 823 -10 1130 2 25 6 63 8 85 2 22 5 42 6 45 1 3 2 8 1 12 0
4 4 19 9 33 6 16 6 24 0 20 -6 -4 -6 5 0 22 8 25 13 51 24 118 9 54 56 228 73
275 3 8 7 20 8 25 9 37 73 187 106 246 21 40 39 75 39 80 0 4 3 9 8 11 4 2 23
26 42 53 40 59 38 56 115 135 69 71 164 137 256 178 35 16 66 29 69 29 3 1 25
6 50 13 65 18 78 20 150 26 36 3 66 7 67 8 3 2 29 1 143 -8z m-4060 -1879 c63
-10 84 -15 152 -37 37 -11 70 -21 73 -21 12 0 173 -94 209 -122 49 -39 121
-111 161 -162 38 -48 105 -162 105 -179 0 -6 4 -16 9 -22 13 -14 52 -133 54
-166 1 -15 5 -28 8 -28 3 0 6 -6 6 -12 3 -45 8 -78 13 -78 6 0 4 -311 -3 -350
-12 -74 -23 -128 -26 -132 -2 -2 -4 -13 -7 -25 -2 -11 -14 -47 -26 -80 -12
-32 -21 -61 -20 -65 1 -5 -2 -8 -6 -8 -5 0 -17 -20 -28 -45 -10 -25 -22 -45
-26 -45 -4 0 -8 -5 -8 -11 0 -24 -135 -172 -200 -220 -142 -103 -315 -168
-495 -185 -16 -1 -30 -3 -30 -4 0 -5 -118 -4 -127 1 -6 4 -21 3 -34 -1 -12 -5
-25 -6 -28 -3 -3 4 -25 7 -49 9 -39 1 -62 5 -142 19 -45 8 -124 35 -183 61
-29 13 -55 24 -58 24 -7 0 -122 78 -152 104 -58 49 -106 103 -151 170 -49 73
-116 196 -106 196 3 0 0 10 -7 23 -7 12 -13 24 -13 27 -1 3 -11 37 -22 75 -12
39 -26 93 -32 120 l-12 50 -389 -1 c-215 0 -391 2 -391 5 -2 9 -7 42 -13 96
-3 28 -8 61 -11 75 -3 14 -8 35 -11 48 -7 35 -54 183 -69 217 -28 64 -76 161
-94 190 -20 31 -28 70 -12 61 5 -3 44 -8 87 -11 44 -3 90 -7 104 -10 14 -2 52
-7 85 -10 116 -11 160 -15 200 -20 22 -3 67 -7 100 -10 130 -11 172 -15 215
-20 25 -3 65 -8 90 -10 25 -2 80 -6 122 -10 l77 -6 20 38 c11 22 27 45 35 52
9 8 16 18 16 23 0 45 287 308 336 308 7 0 14 4 16 9 4 12 175 78 219 85 20 3
42 7 50 10 8 3 34 7 58 10 24 3 46 7 47 9 6 5 276 0 314 -6z"/>
<path d="M13347 5064 c-1 -1 -22 -5 -47 -9 -54 -8 -175 -65 -216 -103 -39 -36
-105 -118 -108 -134 -2 -7 -10 -29 -19 -49 -9 -20 -19 -49 -23 -65 -8 -35 -9
-187 -2 -229 26 -144 152 -292 283 -335 22 -7 45 -16 50 -20 11 -8 13 -8 115
-13 41 -2 91 1 110 5 19 5 42 10 50 12 57 10 135 55 195 113 97 92 147 222
140 363 -5 115 -24 180 -76 255 -55 82 -121 133 -239 184 -36 15 -203 35 -213
25z m148 -107 c11 -2 30 -8 41 -15 12 -6 24 -8 28 -5 3 3 6 2 6 -4 0 -6 11
-14 25 -17 14 -4 25 -11 25 -16 0 -6 5 -10 11 -10 12 0 56 -49 86 -99 45 -71
67 -206 48 -288 -3 -13 -7 -31 -9 -40 -5 -21 -37 -93 -49 -108 -43 -57 -133
-129 -148 -119 -5 3 -9 1 -9 -4 0 -15 -91 -30 -169 -27 -75 3 -140 20 -163 43
-7 7 -17 12 -23 12 -14 1 -76 59 -100 95 -26 39 -45 75 -40 75 3 0 0 12 -6 28
-16 39 -19 62 -20 112 0 61 9 128 22 151 5 11 7 19 4 19 -8 0 45 80 74 114 80
89 217 128 366 103z"/>
<path d="M13344 4839 c-84 -18 -137 -57 -175 -129 -18 -36 -23 -61 -23 -126 0
-70 3 -89 27 -135 27 -53 87 -106 125 -112 9 -1 22 -5 27 -8 6 -4 22 -6 38 -5
15 1 27 -2 27 -7 0 -4 3 -6 8 -3 4 2 28 7 52 11 85 12 152 60 191 136 l18 37
-47 12 c-83 21 -92 22 -92 4 0 -28 -56 -74 -97 -79 -49 -7 -103 20 -122 60 -8
17 -15 58 -15 91 0 100 55 158 139 145 32 -5 71 -38 85 -72 14 -32 11 -32 90
-13 14 4 30 7 36 7 16 1 10 41 -11 74 -56 89 -173 135 -281 112z"/>
</g>
</svg>
